<?xml version="1.0" encoding="UTF-8"?>
<svg id="Calque_1" data-name="Calque 1" xmlns="http://www.w3.org/2000/svg" viewBox="0 0 528.04 241.52">
  <defs>
    <style>
      .cls-1 {
        fill: none;
        stroke: #1d1d1b;
        stroke-miterlimit: 10;
        stroke-width: 39px;
      }
    </style>
  </defs>
  <path class="cls-1" d="M142.52,29.68c-9.1-7.82-37.02-16.14-66.67-4.16-21.33,8.62-56.44,44.19-56.35,94.22.08,43.5,27.82,85.43,65.82,97.66,64.3,20.69,129.69-51.78,147.01-108.97,7.3-24.1,22.68-64.99-6.17-77.1s-52.43,17.48-52.43,17.48c-21.45,23.31-30.42,57.28-27.76,91.54,2.38,30.63,11.47,66.81,60.13,78.83,49.07,12.13,99.11-27.52,117.73-68.6,20.29-44.78,16.27-106.14-15.42-120.28-10.63-4.74-23.86-1.82-32.9,4.11-40.8,26.79-44.04,147.96,14.39,178.88,54.65,28.92,137.82-34.59,149.11-92.75,5.24-27,.61-74.55-30.18-77.19-36.86-3.16-46.63,47.5-43.89,76.47,4.64,49.1,41,108.97,84.79,101.57,12.72-2.15,45.52-11.76,59.09-89.25"/>
</svg>