<?xml version="1.0" encoding="UTF-8"?>
<svg id="Calque_1" data-name="Calque 1" xmlns="http://www.w3.org/2000/svg" viewBox="0 0 716.96 301.94">
  <defs>
    <style>
      .cls-1 {
        fill: black;
      }
    </style>
  </defs>
  <path class="cls-1" d="M158.03,74.66c9.41-25.07-5.38-55.38-28.32-67.43C102.82-6.89,71.47,1,48.91,19.42,28.91,35.74,17.52,61.01,9.88,85.06S-1.56,134.63.58,159.49s9.11,50.56,24.17,71.02c14.73,20.01,33.62,35.01,56.7,44.29,20.82,8.37,45.27,9.96,66.71,2.94,24.49-8.01,44.4-24.75,61.77-43.28,33.54-35.77,64.53-76.02,80.58-122.88,7.78-22.73,12.97-49.1,7.54-72.92-3-13.14-10.61-25.04-22.06-32.31-14.03-8.91-31.74-7.59-46.09-.36-25.7,12.95-33.61,44.15-40.46,69.68-7.25,27.03-12.03,54.68-14.85,82.51-2.78,27.52-4.62,56.27,8.05,81.78,10.44,21.02,31.2,35.58,53.05,42.72,47.1,15.39,96.7-8.85,126.23-45.75,17.09-21.35,28.76-45.36,38.3-70.9,4.34-11.62,8.15-23.43,11.92-35.25,4.33-13.6,8.53-27.34,8.96-41.74.88-29.87-19.08-59.49-50.75-60.65-30.4-1.12-52.56,24.23-61.09,50.92-3.66,11.46-5.23,23.59-6.92,35.46-2.01,14.14-3.83,28.33-4.31,42.61-.89,27.03,3.07,54.67,15.5,78.93,10.32,20.13,27.8,38.79,48.41,48.51,11.8,5.57,24.04,9.06,37.18,9.33,14.24.29,27.71-3.67,40.51-9.55,23.43-10.76,42.25-30.59,57.38-50.98,14.33-19.32,24.88-41.99,30.9-65.25,6.5-25.1,10.93-56.75-3.78-79.9-7.6-11.97-19.54-21.99-33.75-24.71-16.48-3.16-32.31,2.44-44.55,13.61-20.09,18.33-23.54,48.98-26.81,74.45-2.88,22.48-3.07,46.81,5.07,68.31,8.65,22.84,24.56,42.14,47.27,52.03,22.24,9.69,46.47,11.65,70.13,6.14,48.13-11.21,80.43-54.15,96.45-98.44,4.53-12.52,8.52-26.25,7.97-39.67-.7-17.23-8.03-32.6-22.25-42.6-13.43-9.44-31.67-9.79-45.61-1.18-11.54,7.12-20.48,18.69-27.1,30.33-12.17,21.4-17.99,47.16-15.21,71.69s13.29,48.91,30.78,68.06c15.39,16.85,36.26,29.28,58.39,34.8,11.4,2.85,24.93-3.67,27.68-15.71s-3.5-24.63-15.71-27.68c-4.27-1.07-8.35-2.98-12.59-4.03,4.57,1.12,2.84,1.28,1.33.53-1.1-.54-2.21-1.04-3.31-1.59-2.19-1.1-4.33-2.29-6.43-3.55-1.89-1.14-3.74-2.34-5.55-3.6-.76-.53-1.59-1.31-2.39-1.72,3.9,2.01,2.4,1.94,1.07.81-3.74-3.2-7.36-6.45-10.68-10.09-1.32-1.45-2.57-2.96-3.84-4.46-2.75-3.27.8,1.07.82,1.07-.35.03-1.85-2.59-2.12-3-2.62-3.84-4.97-7.87-7-12.05.1.2-1.3-2.62-1.24-2.66-.18.13,1.95,4.95.31.62-.81-2.12-1.54-4.27-2.18-6.45-.59-2-1.12-4.02-1.57-6.06-.28-1.27-.54-2.55-.77-3.83-.72-4.02-.97-.68,0,.57-.9-1.17-.56-6.32-.61-7.79-.08-2.08-.09-4.17-.04-6.26.06-2.35.21-4.69.43-7.03l.08-.78c.29-2.52.23-2.08-.2,1.32-.36-.74.52-3.1.67-3.86.89-4.61,2.1-9.16,3.63-13.6.34-.99.7-1.97,1.07-2.94l.28-.73c.92-2.29.77-1.94-.46,1.05.02-2,2.49-5.2,3.47-7s2.06-3.62,3.18-5.38c.7-1.1,1.43-2.18,2.17-3.25,1-1.44,1.87-4.25-.25.16.8-1.67,2.78-3.36,4.06-4.7.72-.75,1.52-1.42,2.22-2.18,1.86-1.59,1.54-1.38-.95.62l1.27-.84c3.76,0-1.1-1.31-1.33.26-.03.23,5.66-2.13,1.36-.64l-1.53.21c2.49.06,1.89-.1-1.8-.49.07.11,2.86.73,2.69.73-2.86.06-3.72-1.87-1.56-.48,3.52,2.26-1.17-.92-1.07-1.02.1-.11,2.32,2.31,2.58,2.55,1.1,1.26.68.7-1.26-1.68.42.6.81,1.22,1.16,1.86,2.2,3.82.51-.61-.13-.75.2.04,1.02,3.55.91,3.15.91,3.18.72.03.03-.59.28.26.14,3.02.14,3.64,0,1.53-.19,3.05-.23,4.57-.08,3.32.87-3.73.05-.49s-1.43,6.64-2.37,9.93c-1.21,4.24-2.6,8.44-4.11,12.58-.76,2.06-1.97,4.26-2.48,6.4.12-.53,2.11-4.78.48-1.16-.63,1.39-1.25,2.79-1.9,4.17-3.9,8.26-8.46,16.22-13.74,23.67-.73,1.03-1.49,2.03-2.23,3.05-1.92,2.66,3.56-4.22.27-.39-1.31,1.52-2.57,3.08-3.91,4.58-3.17,3.54-6.53,6.89-10.1,10.02-.94.82-1.91,1.61-2.85,2.42-1.17,1.02-3.08,1.61,1.03-.74-1.7.97-3.25,2.38-4.88,3.47-4.08,2.73-8.35,5.08-12.76,7.23-1.35.66-3.63,1.06,1.57-.61-.87.28-1.73.68-2.59,1-1.96.72-3.94,1.37-5.94,1.95s-4.03,1.1-6.07,1.54c-.91.2-1.82.38-2.73.55-.91.17-1.83.32-2.75.46l3.22-.42c-4.18.15-8.29.73-12.49.67-1.85-.03-3.69-.11-5.53-.26-1.15-.09-2.29-.23-3.43-.34-2.3-.22,5.71.94.54-.02-3.8-.7-7.56-1.66-11.23-2.9-.86-.29-1.7-.63-2.55-.92-4.44-1.5,3.79,1.83,1,.45-2.22-1.1-4.44-2.15-6.58-3.41-1.55-.91-3.03-1.92-4.53-2.91-3.11-2.06,1.11.72,1.32,1.1-.43-.77-1.89-1.57-2.58-2.18-1.52-1.35-2.98-2.78-4.37-4.27-.62-.67-1.21-1.37-1.82-2.05-3.17-3.55,2.73,4.12-.12-.16-.93-1.39-7.56-10.47-6.63-11.7.02-.03,2.02,5.35.57,1.26-.33-.93-.69-1.86-1-2.8-.79-2.36-1.48-4.75-2.07-7.17-.53-2.19-.98-4.41-1.36-6.64-.78-4.59-.51.53.05.72-.12-.04-.34-3.22-.32-3.04-.45-4.88-.6-9.79-.52-14.69.07-4.45.32-8.9.72-13.33.23-2.62.54-5.23.84-7.84.25-2.17-.73-2.3-.17,1.3-.21-1.35.5-3.34.71-4.66,1.55-9.68,3.2-19.53,6.16-28.89.34-1.08.75-2.14,1.09-3.23,1.62-5.16-1.64,2.79.03-.1.46-.8,2.76-6.42,3.68-6.44.05,0-3.75,4.21-.79,1.03.68-.73,1.33-1.48,2.04-2.18.46-.45,4.14-3.08,1.1-1.15s.73-.36,1.38-.73l1.29-.7c1.76-.84,1.75-.85-.02-.04l-1.34.6c.92-.31,1.85-.56,2.79-.77-.06.45-5.92.15-1.66.27-.15,0,2.79.18,2.89.09-.89.87-5-.91-1.83-.04,4.54,1.24-3.43-2.06-.8-.5,1,.59,2.05,1.18,3.06,1.75,3.41,1.91-2.31-2.35-.63-.44.77.88,1.7,1.73,2.53,2.56,1.8,1.79-.28,1.49-.85-1.14.13.6,1.18,1.81,1.54,2.44.21.36,2.43,4.6.82,1.31-1.45-2.96.04.34.31,1.18.43,1.35.79,2.72,1.1,4.11.1.46.51,3.3.62,3.35-.37-2.88-.47-3.46-.31-1.74.08.85.13,1.71.17,2.57.24,5.2-.23,10.31-.65,15.48-.11,1.31,0,4.26.21-1.19-.04,1.02-.32,2.2-.48,3.18-.42,2.65-.91,5.29-1.46,7.91-2.03,9.71-4.92,19.24-8.59,28.46-.3.75-1.75,3.95-.4,1.03,1.56-3.39-.67,1.44-.81,1.73-.89,1.95-1.82,3.88-2.79,5.8-2.41,4.79-5.05,9.47-7.89,14.02-2.42,3.87-4.99,7.63-7.71,11.3-.97,1.3-2.23,4.3.09-.09-.44.82-1.47,1.83-2.02,2.5-1.71,2.07-3.46,4.1-5.27,6.08-3.25,3.58-6.66,7.03-10.21,10.3-1.62,1.49-3.26,2.95-4.95,4.36-.71.59-1.71,1.62-2.56,2.09,4.73-2.63.42-.35-.73.47-4.02,2.86-8.24,5.47-12.64,7.7-.97.49-1.97.94-2.94,1.42-4.77,2.36,3.32-1.05.12-.08-2.6.79-5.09,1.76-7.74,2.41-1.31.33-2.64.56-3.96.86-2.49.58-1.61-.86,1.15-.11-1.54-.42-4.3.32-5.94.32-1.76,0-5.46-.91-7.08-.4.49-.16,5.57,1.06,1.81.17-1.37-.32-2.75-.56-4.11-.92-1.81-.47-3.61-1.02-5.37-1.64-.5-.18-4.93-1.8-1.24-.41,3.21,1.21.27.07-.53-.31-4.09-1.98-7.86-4.4-11.6-6.96-3.5-2.39,1.21.81,1.12.89-.08.07-2.49-2.09-2.77-2.33-1.64-1.44-3.23-2.94-4.77-4.49-1.37-1.39-2.7-2.82-3.98-4.29-.8-.92-1.56-1.88-2.35-2.82-1.31-1.54,2.92,4.02-.03-.14-2.41-3.4-4.61-6.94-6.57-10.62-1.03-1.94-1.94-3.93-2.89-5.91-1.4-2.91,1.92,5.33.31.67-.51-1.49-1.09-2.95-1.58-4.45-1.62-4.88-2.9-9.87-3.91-14.91-.22-1.12-1.83-9.84-.79-3.84-.51-2.96-.67-6.03-.88-9.02-.76-10.95-.45-21.96.45-32.9.45-5.51,1.07-11.01,1.76-16.49.54-4.3,0-.27-.07.51.15-1.52.43-3.04.65-4.55.44-3,.9-5.99,1.38-8.98.75-4.7,1.54-9.4,2.57-14.05.6-2.73,1.28-5.44,2.08-8.11.32-1.06.65-2.12,1.01-3.17.47-1.39,1.34-6.17.13-.8.45-2.01,1.96-4.11,2.99-5.89.56-.95,1.21-1.86,1.75-2.81,2.65-4.62-2.47,2.49-.31.32,1.17-1.17,3.95-3.2,4.71-4.67-1.15,2.23-3.2,2.21-1.02.84,1.25-.79,2.51-1.52,3.78-2.28,3.66-2.2-1.2.8-1.4.44,0,0,3.07-1.03,3.42-1.13.92-.25,1.86-.41,2.78-.64,2.85-.7-5.65-.2-1.06.31.74.08,2.16.19,2.81.11-4.01.51-3.94-.72-1.8-.07,4.6,1.4-3.37-2.08-.68-.51.19.11,3,1.81,3.06,1.76-.42.38-4.01-3.57-.74-.42.27.26,2.35,2.61,2.4,2.59-.49.22-2.93-4.76-1.02-1.09.43.83.97,1.7,1.44,2.49,2.17,3.65-.81-1.26-.46-1.42.03-.01,1.08,3.1,1.18,3.44.35,1.17.57,2.36.89,3.53,1.1,3.97-.1-3.7-.08-.97s.24,5.35.08,8.06c-.06,1.08-.06,2.56-.32,3.65,1.2-4.99.05-.94-.21.38-1.13,5.77-2.8,11.41-4.55,17.01-3.18,10.2-6.44,20.38-9.92,30.48-1.73,5.02-3.53,10.03-5.43,14.99-.84,2.2-1.74,4.38-2.6,6.58-2.09,5.36,1.34-2.97-.12.33-.71,1.61-1.41,3.23-2.14,4.84-4.48,9.9-9.57,19.54-15.53,28.63-1.13,1.72-2.29,3.42-3.48,5.1-.6.84-1.22,1.66-1.82,2.5-3,4.2,2.35-2.8.2-.26-3.17,3.77-6.32,7.52-9.78,11.04-3.27,3.33-6.76,6.35-10.27,9.41-1.06.92-3.24,1.92.93-.65-.85.52-1.66,1.24-2.47,1.83-2.07,1.49-4.19,2.92-6.36,4.28-3.9,2.43-7.94,4.54-12.09,6.5-3.87,1.83,1.08-.32,1.17-.48-.37.59-2.84,1.08-3.56,1.33-2.4.84-4.83,1.59-7.29,2.23-2.23.58-4.48,1.01-6.74,1.48-3.74.78,1.52-.19,1.93-.2-.89.02-1.83.2-2.72.28-4.6.39-9.12.18-13.71-.07-1.5-.08-4.03-.86,1.88.32-.9-.18-1.82-.28-2.72-.44-2.03-.37-4.05-.81-6.04-1.33s-3.96-1.11-5.91-1.78c-.86-.3-1.71-.64-2.57-.94-4.59-1.61,4.7,2.29.35.13-3.65-1.81-7.2-3.73-10.56-6.05-.73-.51-1.44-1.09-2.18-1.57,4.62,2.98,2.5,2.01,1.41,1.01-1.8-1.67-3.63-3.26-5.31-5.07-.61-.65-1.18-1.33-1.77-1.99-2.3-2.55.31-1.7.63.89-.16-1.33-2.22-3.25-2.93-4.47-1.03-1.75-1.9-3.56-2.8-5.38-1.3-2.66,1.64,5.63.2.16-.45-1.72-1.08-3.39-1.52-5.11-.34-1.33-2-5.69-1.42-6.97-.68,1.47.33,3.66.14.67-.09-1.49-.25-2.98-.33-4.47-.31-5.69-.21-11.4.05-17.1.52-11.31,1.52-22.61,2.88-33.86,0-.04.78-6.23.32-2.66-.39,3.02.14-1,.24-1.71.4-2.82.83-5.64,1.28-8.45.96-5.94,2.03-11.86,3.21-17.76,2.3-11.49,5.01-22.89,8.14-34.19,1.44-5.19,2.96-10.35,4.57-15.49.75-2.4,1.52-4.79,2.35-7.16.36-1.04.77-2.07,1.13-3.11,1.83-5.23-2.16,4.25.27-.7,1.08-2.21,2.17-4.38,3.47-6.48.57-.92,1.21-1.8,1.8-2.71,1.67-2.6-3.75,3.49.08.13.73-.64,1.45-1.42,2.15-2.09,3.19-3.06-.95.88-.97.75-.06-.37,2.86-1.65,3.26-1.92,2.1-1.39-4.39,1.1-.53.25l1.43-.41c1.95-.4,1.92-.45-.1-.14-4.23-.69,1.13.9,1.38.12-.26.82-5.56-1.96-1.66-.2,3.15,1.43-1.27-.63-1.39-.83.1.18,1.83,1.04,2.21,1.23,3.87,1.95-3.33-2.72-1.17-.85s.46,2.39-.7-1.31c.27.85,1.19,1.88,1.67,2.63,1.43,2.19.14,3.03-.35-1.35.08.7.68,1.84.88,2.45.55,1.69.98,3.41,1.33,5.15.13.65,1.12,5.06.23,1.02s-.06.28-.02,1.07c.13,2.24.15,4.5.07,6.74-.07,1.98-.23,3.95-.41,5.92-.13,1.36-.3,2.72-.43,4.08-.34,3.48.98-5.66.03-.31-.86,4.82-1.72,9.6-2.91,14.35s-2.56,9.41-4.11,14.03c-.69,2.05-1.42,4.1-2.19,6.13-.48,1.27-.97,2.54-1.47,3.8-.3.76-.61,1.51-.92,2.27,1.11-2.61,1.34-3.15.67-1.62-8.43,18.38-18.6,35.61-30.54,51.94-1.32,1.8-2.66,3.57-3.99,5.36-3.28,4.41,2.11-2.64-.05.08-.87,1.09-1.72,2.19-2.59,3.28-3.12,3.92-6.31,7.79-9.55,11.61-6.57,7.75-13.32,15.36-20.32,22.72-3.19,3.36-6.45,6.65-9.82,9.83-1.98,1.86-3.99,3.69-6.05,5.46-.82.71-1.65,1.4-2.48,2.09-1.24,1.02-3.97,4.51-.53.48-2.64,3.1-7.88,5.49-11.4,7.49-2.09,1.19-4.23,2.25-6.39,3.3-3.82,1.88.53-.46.97-.36-.65-.14-3.86,1.43-4.53,1.65-2.08.68-4.18,1.27-6.31,1.76-1.14.26-2.29.45-3.43.71-2.16.48-2.16-.72,1.85-.19-3.88-.51-8.44.63-12.45.44-1.15-.05-2.3-.14-3.45-.24-2.76-.25-2.66-1.58,1.16.22-1.53-.72-3.79-.65-5.47-1.02-4.58-1.02-8.97-2.49-13.37-4.09-2.9-1.06.89-.57,1.47.63-.12-.25-2.53-1.17-2.57-1.19-1.92-.92-3.8-1.91-5.66-2.95-3.96-2.23-7.49-5.03-11.33-7.41,5.17,3.2.4.24-1.01-.98-1.81-1.56-3.56-3.19-5.25-4.87-1.36-1.35-2.67-2.73-3.95-4.15-.64-.71-1.27-1.43-1.89-2.16-3.49-4.11.26-.5-.07.09.27-.49-6.46-9.62-7.07-10.7-.98-1.72-1.9-3.48-2.78-5.26-.62-1.26-1.17-2.54-1.78-3.8-.68-1.52-.47-1.02.63,1.53-.31-.77-.62-1.55-.91-2.33-1.67-4.41-3.08-8.92-4.24-13.5-.61-2.42-1.14-4.86-1.61-7.32-.26-1.37-.47-2.74-.72-4.1-.85-4.7.35,4.54-.08-.64-.84-10.11-1.12-20.12-.26-30.24.1-1.13.2-2.25.32-3.37.03-.3.72-5.85.21-2.06-.43,3.27.08-.41.21-1.21.22-1.4.46-2.8.71-4.19.91-5.02,2.02-10,3.33-14.93s2.78-9.78,4.44-14.59c.81-2.34,1.66-4.67,2.55-6.97.47-1.23.86-2.63,1.5-3.78-1.29,2.31-1.22,2.81,0,.14,1.9-4.19,3.99-8.3,6.33-12.26,1.37-2.33,2.92-4.51,4.37-6.78,1.2-1.88,1.94-.96-.64.68.98-.62,2.31-2.81,3.09-3.7,1.42-1.6,2.91-3.15,4.47-4.63.97-.92,2.03-1.75,2.99-2.68,2.19-2.11-3.38,2.27-.82.6,2-1.3,3.93-2.67,6.01-3.83.92-.51,1.89-.95,2.81-1.48,4.25-2.42-3.82,1.2.45-.22,2.25-.75,4.47-1.48,6.79-2l.76-.17c2.5-.45,2.04-.44-1.36.04.3-.27,2.95-.26,3.1-.27.63-.03,6.09-.33,6.19.08-.07-.32-5.28-1-.62-.01,1.53.33,3,.88,4.51,1.23,3.06.71-4.07-2.11-1.54-.72.98.54,1.99,1,2.96,1.58.71.43,1.52,1.16,2.25,1.47-3.67-1.56-2.85-2.46-1.38-1.01s2.85,2.85,4.22,4.36c1.99,2.18-2.86-4.77-.73-.76.42.78.95,1.52,1.38,2.3.14.25.85,2.11,1.21,2.38-2.09-1.59-1.47-4.26-.8-1.68.27,1.05.57,2.14.89,3.17,1.01,3.24-1.26,1.65-.09-1.47-.35.92-.3,4.23-.02,5.19-1.01-3.47.97-4.48.16-2.12-.43,1.26-.74,2.53-1.21,3.78-4.14,11.04,4.6,25.15,15.71,27.68,12.79,2.91,23.24-3.89,27.68-15.71h0Z"/>
  <path class="cls-1" d="M694.45,285.8c11.77,0,23.04-10.35,22.5-22.5-.55-12.19-9.89-22.5-22.5-22.5-11.77,0-23.04,10.35-22.5,22.5.55,12.19,9.89,22.5,22.5,22.5h0Z"/>
</svg>